<mxfile host="app.diagrams.net" modified="2020-03-23T07:20:40.524Z" agent="Mozilla/5.0 (Windows NT 10.0; Win64; x64) AppleWebKit/537.36 (KHTML, like Gecko) Chrome/68.0.3440.106 Safari/537.36" etag="ejfzyOhioewb47Blybd7" version="12.8.8" type="github">
  <diagram name="Page-1" id="822b0af5-4adb-64df-f703-e8dfc1f81529">
    <mxGraphModel dx="1422" dy="719" grid="0" gridSize="10" guides="1" tooltips="1" connect="1" arrows="1" fold="1" page="1" pageScale="1" pageWidth="1100" pageHeight="850" background="#ffffff" math="0" shadow="0">
      <root>
        <mxCell id="0" />
        <mxCell id="1" parent="0" />
        <mxCell id="ZmMwuSTBES3cROJkD45N-25" value="" style="rounded=0;whiteSpace=wrap;html=1;dashed=1;" parent="1" vertex="1">
          <mxGeometry x="734" y="569" width="120" height="151" as="geometry" />
        </mxCell>
        <mxCell id="7d933b09d9755ecc-13" value="" style="ellipse;whiteSpace=wrap;html=1;rounded=0;shadow=0;comic=0;strokeWidth=1;fontFamily=Verdana;" parent="1" vertex="1">
          <mxGeometry x="165" y="260" width="142" height="94" as="geometry" />
        </mxCell>
        <mxCell id="7d933b09d9755ecc-33" value="上网用户" style="verticalLabelPosition=bottom;aspect=fixed;html=1;verticalAlign=top;strokeColor=none;shape=mxgraph.citrix.users;rounded=0;shadow=0;comic=0;fontFamily=Verdana;" parent="1" vertex="1">
          <mxGeometry x="204.19" y="278.28" width="64.5" height="55" as="geometry" />
        </mxCell>
        <mxCell id="ZmMwuSTBES3cROJkD45N-1" value="防火墙将工号密码发送至LDAP服务器验证" style="rounded=0;whiteSpace=wrap;html=1;" parent="1" vertex="1">
          <mxGeometry x="414.19" y="277" width="120" height="60" as="geometry" />
        </mxCell>
        <mxCell id="ZmMwuSTBES3cROJkD45N-2" value="通过认证" style="rhombus;whiteSpace=wrap;html=1;" parent="1" vertex="1">
          <mxGeometry x="674.19" y="268.28" width="80" height="80" as="geometry" />
        </mxCell>
        <mxCell id="ZmMwuSTBES3cROJkD45N-6" value="完成认证" style="whiteSpace=wrap;html=1;aspect=fixed;fillColor=#dae8fc;strokeColor=#6c8ebf;" parent="1" vertex="1">
          <mxGeometry x="854.19" y="268.28" width="80" height="80" as="geometry" />
        </mxCell>
        <mxCell id="ZmMwuSTBES3cROJkD45N-7" value="" style="endArrow=classic;html=1;exitX=0.5;exitY=1;exitDx=0;exitDy=0;entryX=0.431;entryY=1.014;entryDx=0;entryDy=0;entryPerimeter=0;" parent="1" source="ZmMwuSTBES3cROJkD45N-2" target="7d933b09d9755ecc-13" edge="1">
          <mxGeometry width="50" height="50" relative="1" as="geometry">
            <mxPoint x="724.19" y="418.28" as="sourcePoint" />
            <mxPoint x="174.19" y="452.28" as="targetPoint" />
            <Array as="points">
              <mxPoint x="714.19" y="452.28" />
              <mxPoint x="226.19" y="452.28" />
            </Array>
          </mxGeometry>
        </mxCell>
        <mxCell id="ZmMwuSTBES3cROJkD45N-9" value="" style="endArrow=classic;html=1;" parent="1" edge="1">
          <mxGeometry width="50" height="50" relative="1" as="geometry">
            <mxPoint x="307.19" y="307.28" as="sourcePoint" />
            <mxPoint x="414.19" y="307.28" as="targetPoint" />
            <Array as="points" />
          </mxGeometry>
        </mxCell>
        <mxCell id="ZmMwuSTBES3cROJkD45N-10" value="" style="endArrow=classic;html=1;entryX=0;entryY=0.5;entryDx=0;entryDy=0;" parent="1" target="ZmMwuSTBES3cROJkD45N-2" edge="1">
          <mxGeometry width="50" height="50" relative="1" as="geometry">
            <mxPoint x="534.19" y="307.93999999999994" as="sourcePoint" />
            <mxPoint x="641.19" y="307.93999999999994" as="targetPoint" />
            <Array as="points" />
          </mxGeometry>
        </mxCell>
        <mxCell id="ZmMwuSTBES3cROJkD45N-11" value="" style="endArrow=classic;html=1;entryX=0;entryY=0.5;entryDx=0;entryDy=0;exitX=1.006;exitY=0.499;exitDx=0;exitDy=0;exitPerimeter=0;" parent="1" source="ZmMwuSTBES3cROJkD45N-2" target="ZmMwuSTBES3cROJkD45N-6" edge="1">
          <mxGeometry width="50" height="50" relative="1" as="geometry">
            <mxPoint x="754.19" y="306.65999999999985" as="sourcePoint" />
            <mxPoint x="894.19" y="307" as="targetPoint" />
            <Array as="points" />
          </mxGeometry>
        </mxCell>
        <mxCell id="ZmMwuSTBES3cROJkD45N-12" value="否" style="text;html=1;resizable=0;autosize=1;align=center;verticalAlign=middle;points=[];fillColor=none;strokeColor=none;rounded=0;" parent="1" vertex="1">
          <mxGeometry x="669.19" y="348.28" width="30" height="20" as="geometry" />
        </mxCell>
        <mxCell id="ZmMwuSTBES3cROJkD45N-13" value="是" style="text;html=1;resizable=0;autosize=1;align=center;verticalAlign=middle;points=[];fillColor=none;strokeColor=none;rounded=0;" parent="1" vertex="1">
          <mxGeometry x="784.19" y="278.28" width="30" height="20" as="geometry" />
        </mxCell>
        <mxCell id="ZmMwuSTBES3cROJkD45N-14" value="再次认证" style="text;html=1;resizable=0;autosize=1;align=center;verticalAlign=middle;points=[];fillColor=none;strokeColor=none;rounded=0;" parent="1" vertex="1">
          <mxGeometry x="429.19" y="418.28" width="60" height="20" as="geometry" />
        </mxCell>
        <mxCell id="ZmMwuSTBES3cROJkD45N-15" value="Portal认证&lt;br&gt;工号密码" style="text;html=1;resizable=0;autosize=1;align=center;verticalAlign=middle;points=[];fillColor=none;strokeColor=none;rounded=0;" parent="1" vertex="1">
          <mxGeometry x="322.19" y="271" width="65" height="32" as="geometry" />
        </mxCell>
        <mxCell id="ZmMwuSTBES3cROJkD45N-16" value="用户1" style="verticalLabelPosition=bottom;aspect=fixed;html=1;verticalAlign=top;strokeColor=none;shape=mxgraph.citrix.users;rounded=0;shadow=0;comic=0;fontFamily=Verdana;" parent="1" vertex="1">
          <mxGeometry x="754.19" y="574" width="64.5" height="55" as="geometry" />
        </mxCell>
        <mxCell id="ZmMwuSTBES3cROJkD45N-18" value="用户2" style="verticalLabelPosition=bottom;aspect=fixed;html=1;verticalAlign=top;strokeColor=none;shape=mxgraph.citrix.users;rounded=0;shadow=0;comic=0;fontFamily=Verdana;" parent="1" vertex="1">
          <mxGeometry x="754.19" y="645" width="64.5" height="55" as="geometry" />
        </mxCell>
        <mxCell id="ZmMwuSTBES3cROJkD45N-26" value="用户管理与认证" style="rounded=0;whiteSpace=wrap;html=1;" parent="1" vertex="1">
          <mxGeometry x="477" y="615" width="120" height="60" as="geometry" />
        </mxCell>
        <mxCell id="ZmMwuSTBES3cROJkD45N-27" value="10.145.2.1&lt;br&gt;10.145.2.2&lt;br&gt;10.145.2.3&lt;br&gt;10.145.2.4&lt;br&gt;……" style="whiteSpace=wrap;html=1;aspect=fixed;dashed=1;" parent="1" vertex="1">
          <mxGeometry x="245" y="580.5" width="129" height="129" as="geometry" />
        </mxCell>
        <mxCell id="ZmMwuSTBES3cROJkD45N-28" value="" style="shape=flexArrow;endArrow=classic;html=1;entryX=0;entryY=0.5;entryDx=0;entryDy=0;exitX=1;exitY=0.5;exitDx=0;exitDy=0;" parent="1" source="ZmMwuSTBES3cROJkD45N-27" target="ZmMwuSTBES3cROJkD45N-26" edge="1">
          <mxGeometry width="50" height="50" relative="1" as="geometry">
            <mxPoint x="374" y="652" as="sourcePoint" />
            <mxPoint x="424" y="602" as="targetPoint" />
          </mxGeometry>
        </mxCell>
        <mxCell id="ZmMwuSTBES3cROJkD45N-29" value="" style="shape=flexArrow;endArrow=classic;html=1;entryX=0;entryY=0.5;entryDx=0;entryDy=0;exitX=1;exitY=0.5;exitDx=0;exitDy=0;" parent="1" source="ZmMwuSTBES3cROJkD45N-26" target="ZmMwuSTBES3cROJkD45N-25" edge="1">
          <mxGeometry width="50" height="50" relative="1" as="geometry">
            <mxPoint x="161" y="865" as="sourcePoint" />
            <mxPoint x="211" y="815" as="targetPoint" />
          </mxGeometry>
        </mxCell>
      </root>
    </mxGraphModel>
  </diagram>
</mxfile>
